<svg width="556" height="542" viewBox="0 0 556 542" fill="none" xmlns="http://www.w3.org/2000/svg">
<path fill-rule="evenodd" clip-rule="evenodd" d="M243.5 0.251592C242.4 0.502592 239.025 1.19959 236 1.79859C224.251 4.12859 211.03 11.7036 187 29.8726C97.877 97.2596 74.537 113.181 25.193 140.247C4.58899 151.549 0 156 0 164.679C0 176.86 9.158 182.879 35.108 187.755C47.059 190.001 92.145 200.623 92.992 201.392C93.262 201.638 92.742 202.254 91.835 202.762C90.928 203.269 81.743 210.036 71.423 217.8C61.103 225.564 43.174 238.211 31.58 245.904C19.986 253.597 9.04299 261.279 7.26199 262.975C-1.60001 271.413 -0.679003 285.563 9.2 292.719C14.277 296.397 18.859 297.791 40.5 302.244C57.616 305.766 87.962 313.317 88.942 314.298C89.569 314.925 90.297 314.34 65.854 332.822C55.209 340.871 38.26 352.982 28.188 359.735C18.117 366.489 8.355 373.793 6.495 375.966C-1.665 385.499 0.921001 398.456 12.317 405.134C18.879 408.98 23.503 410.319 47.352 415.275C75.003 421.022 91.842 426.509 111.3 436.113C133.908 447.272 145.122 454.141 219.644 502.472C252.562 523.822 269.588 532.329 291.5 538.376C300.46 540.848 303.164 541.138 317.5 541.162C336.048 541.193 340.595 540.211 356.5 532.733C374.533 524.256 391.389 512.835 426.5 485.304C490.087 435.445 534.255 395.534 544.484 378.689C552.964 364.725 554.244 350.722 548.169 338.381C542.221 326.299 531.46 319.332 510.131 313.756C503.878 312.122 498.59 310.613 498.381 310.404C498.172 310.194 503.903 304.894 511.116 298.626C537.154 276 549.447 260.213 553.013 244.821C554.605 237.945 553.823 229.418 551.06 223.539C544.977 210.599 534.708 204.637 508.696 198.944L491.892 195.267L497.696 190.281C507.966 181.458 530.991 158.415 537.256 150.689C546.041 139.855 551.541 130.983 554.032 123.63C559.465 107.587 552.279 92.5556 537.146 88.3096C529.248 86.0936 524.718 86.2556 507.408 89.3736C488.057 92.8596 461.279 93.2966 448.5 90.3346C418.862 83.4646 408.169 78.1446 308.507 20.6886C290.135 10.0966 279.05 4.97358 268.648 2.26758C262.605 0.695584 247.026 -0.553408 243.5 0.251592ZM235.468 23.0356C225.865 26.6066 218.711 31.4426 180.5 60.1886C132.81 96.0656 119.228 105.9 96 121.375C70.675 138.246 49.631 150.786 30.127 160.627C26.621 162.395 24.146 164.21 24.627 164.659C25.765 165.725 38.554 168.757 58.5 172.691C88.047 178.52 107.765 184.227 129.733 193.309C147.235 200.545 185.54 220.76 223 242.528C263.961 266.332 280.151 273.824 299.066 277.732C312.408 280.488 328.772 280.066 339.5 276.688C364.059 268.957 420.474 229.693 479.5 179.248C503.941 158.36 527.999 132.696 532.898 122.285C536.32 115.012 536.482 112.08 533.619 109.217C530.349 105.947 527.52 105.97 509.086 109.415C496.19 111.825 492.067 112.144 473.5 112.165C449.607 112.192 443.767 111.298 423 104.428C403.05 97.8276 377.175 84.3276 309.5 45.2096C282.026 29.3276 271.955 24.3616 262.905 22.2276C253.488 20.0086 242.76 20.3246 235.468 23.0356ZM113.938 210.264C110.914 213.907 63.34 248.792 43.738 261.74C32.057 269.455 22.365 276.156 22.199 276.631C21.688 278.097 30.577 280.488 54 285.187C105.651 295.55 122.412 303.18 215.5 358.707C234.2 369.862 255.18 381.839 262.121 385.323C285.207 396.911 306.416 402.444 323.5 401.337C349.433 399.656 371.857 386.161 444 328.819C484.672 296.492 503.275 280.235 517.715 264.401C534.181 246.346 537.584 235.411 529.227 227.408C525.11 223.465 518.706 221.064 506 218.698C499.675 217.521 489.719 215.389 483.876 213.961L473.251 211.364L460.755 221.405C422.928 251.801 387.066 276.687 366.513 286.804C335.907 301.87 310.256 303.541 277.5 292.603C261.815 287.365 246.545 279.811 219 263.661C183.154 242.644 152.917 225.983 134.333 217.011C124.854 212.434 116.682 208.689 116.172 208.689C115.662 208.689 114.657 209.398 113.938 210.264ZM82.5 345.337C66.55 357.222 46.637 371.462 38.25 376.982C29.863 382.503 23 387.363 23 387.782C23 389.289 34.077 392.641 50.639 396.146C83.949 403.195 92.226 405.73 113.155 415.292C137.93 426.613 154.623 436.478 210.5 472.824C250.665 498.95 258.158 503.492 271.269 509.658C303.578 524.853 329.218 525.608 353.904 512.092C376.003 499.992 405.056 478.231 456 435.622C508.885 391.389 526.03 374.357 530.54 361.574C532.597 355.744 532.331 350.832 529.706 346.189C526.161 339.921 519.368 336.51 501.734 332.146C493.355 330.072 484.847 327.803 482.826 327.103L479.153 325.832L465.877 336.866C436.598 361.202 406.632 383.849 385.959 397.264C357.193 415.932 336.376 422.819 313.076 421.378C283.33 419.538 263.027 410.844 200.5 373.174C160.459 349.051 115.134 323.636 112.283 323.709C111.852 323.72 98.45 333.453 82.5 345.337Z" fill="white"/>
</svg>
